<svg width="165" height="48" viewBox="0 0 165 48" fill="none" xmlns="http://www.w3.org/2000/svg">
<g filter="url(#filter0_d_1_128)">
<g clip-path="url(#clip0_1_128)">
<path fill-rule="evenodd" clip-rule="evenodd" d="M12 10C12 8.61929 13.1193 7.5 14.5 7.5H18.25C19.6307 7.5 20.75 8.61929 20.75 10V30C20.75 31.3807 19.6307 32.5 18.25 32.5H14.5C13.1193 32.5 12 31.3807 12 30V10ZM18.25 10H14.5V30H18.25V10Z" fill="#361AE1"/>
<path fill-rule="evenodd" clip-rule="evenodd" d="M28.25 10C28.25 8.61929 29.3693 7.5 30.75 7.5H34.5C35.8807 7.5 37 8.61929 37 10V30C37 31.3807 35.8807 32.5 34.5 32.5H30.75C29.3693 32.5 28.25 31.3807 28.25 30V10ZM34.5 10H30.75V30H34.5V10Z" fill="#361AE1"/>
<path fill-rule="evenodd" clip-rule="evenodd" d="M34.5 12.5C34.5 11.8096 35.0596 11.25 35.75 11.25H39.5C40.163 11.25 40.7989 11.5134 41.2678 11.9822C41.7366 12.4511 42 13.087 42 13.75V26.25C42 26.913 41.7366 27.5489 41.2678 28.0178C40.7989 28.4866 40.163 28.75 39.5 28.75H35.75C35.0596 28.75 34.5 28.1904 34.5 27.5C34.5 26.8096 35.0596 26.25 35.75 26.25H39.5L39.5 13.75L35.75 13.75C35.0596 13.75 34.5 13.1904 34.5 12.5Z" fill="#361AE1"/>
<path fill-rule="evenodd" clip-rule="evenodd" d="M7.73223 11.9822C8.20107 11.5134 8.83696 11.25 9.5 11.25H13.25C13.9404 11.25 14.5 11.8096 14.5 12.5C14.5 13.1904 13.9404 13.75 13.25 13.75L9.5 13.75V26.25H13.25C13.9404 26.25 14.5 26.8096 14.5 27.5C14.5 28.1904 13.9404 28.75 13.25 28.75H9.5C8.83696 28.75 8.20108 28.4866 7.73223 28.0178C7.26339 27.5489 7 26.913 7 26.25V13.75C7 13.087 7.26339 12.4511 7.73223 11.9822Z" fill="#361AE1"/>
<path fill-rule="evenodd" clip-rule="evenodd" d="M18.25 20C18.25 19.3096 18.8096 18.75 19.5 18.75H29.5C30.1904 18.75 30.75 19.3096 30.75 20C30.75 20.6904 30.1904 21.25 29.5 21.25H19.5C18.8096 21.25 18.25 20.6904 18.25 20Z" fill="#361AE1"/>
<path fill-rule="evenodd" clip-rule="evenodd" d="M39.5 20C39.5 19.3096 40.0596 18.75 40.75 18.75H43.25C43.9404 18.75 44.5 19.3096 44.5 20C44.5 20.6904 43.9404 21.25 43.25 21.25H40.75C40.0596 21.25 39.5 20.6904 39.5 20Z" fill="#361AE1"/>
<path fill-rule="evenodd" clip-rule="evenodd" d="M4.5 20C4.5 19.3096 5.05964 18.75 5.75 18.75H8.25C8.94036 18.75 9.5 19.3096 9.5 20C9.5 20.6904 8.94036 21.25 8.25 21.25H5.75C5.05964 21.25 4.5 20.6904 4.5 20Z" fill="#361AE1"/>
</g>
<path d="M69.2773 9.59375H73.3652V22.7461C73.3652 24.2773 73.0371 25.5671 72.3809 26.6152C71.7337 27.6634 70.8359 28.4518 69.6875 28.9805C68.5482 29.5091 67.2357 29.7734 65.75 29.7734C64.2643 29.7734 62.9427 29.5091 61.7852 28.9805C60.6367 28.4518 59.7344 27.6634 59.0781 26.6152C58.431 25.5671 58.1074 24.2773 58.1074 22.7461V9.59375H62.209V22.7461C62.209 23.6393 62.3503 24.3685 62.6328 24.9336C62.9154 25.4987 63.321 25.9134 63.8496 26.1777C64.3874 26.4421 65.0208 26.5742 65.75 26.5742C66.4974 26.5742 67.1309 26.4421 67.6504 26.1777C68.179 25.9134 68.5801 25.4987 68.8535 24.9336C69.1361 24.3685 69.2773 23.6393 69.2773 22.7461V9.59375ZM80.3516 17.8652V29.5H76.4141V14.707H80.1055L80.3516 17.8652ZM79.7773 21.584H78.7109C78.7109 20.4902 78.8522 19.5059 79.1348 18.6309C79.4173 17.7467 79.8138 16.9948 80.3242 16.375C80.8346 15.7461 81.4408 15.2676 82.1426 14.9395C82.8535 14.6022 83.6465 14.4336 84.5215 14.4336C85.2142 14.4336 85.8477 14.5339 86.4219 14.7344C86.9961 14.9349 87.4883 15.2539 87.8984 15.6914C88.3177 16.1289 88.6367 16.7077 88.8555 17.4277C89.0833 18.1478 89.1973 19.0273 89.1973 20.0664V29.5H85.2324V20.0527C85.2324 19.3965 85.1413 18.8861 84.959 18.5215C84.7767 18.1569 84.5078 17.9017 84.1523 17.7559C83.806 17.6009 83.3776 17.5234 82.8672 17.5234C82.3385 17.5234 81.8783 17.6283 81.4863 17.8379C81.1035 18.0475 80.7845 18.3392 80.5293 18.7129C80.2832 19.0775 80.0964 19.5059 79.9688 19.998C79.8411 20.4902 79.7773 21.0189 79.7773 21.584ZM96.3477 14.707V29.5H92.3965V14.707H96.3477ZM92.1504 10.8516C92.1504 10.2773 92.3509 9.80339 92.752 9.42969C93.153 9.05599 93.6908 8.86914 94.3652 8.86914C95.0306 8.86914 95.5638 9.05599 95.9648 9.42969C96.375 9.80339 96.5801 10.2773 96.5801 10.8516C96.5801 11.4258 96.375 11.8997 95.9648 12.2734C95.5638 12.6471 95.0306 12.834 94.3652 12.834C93.6908 12.834 93.153 12.6471 92.752 12.2734C92.3509 11.8997 92.1504 11.4258 92.1504 10.8516ZM122.598 19.0957V26.9844C122.288 27.3581 121.809 27.7637 121.162 28.2012C120.515 28.6296 119.681 28.9987 118.66 29.3086C117.639 29.6185 116.404 29.7734 114.955 29.7734C113.67 29.7734 112.499 29.5638 111.441 29.1445C110.384 28.7161 109.473 28.0918 108.707 27.2715C107.951 26.4512 107.367 25.4486 106.957 24.2637C106.547 23.0697 106.342 21.707 106.342 20.1758V18.9316C106.342 17.4004 106.538 16.0378 106.93 14.8438C107.331 13.6497 107.9 12.6426 108.639 11.8223C109.377 11.002 110.257 10.3776 111.277 9.94922C112.298 9.52083 113.433 9.30664 114.682 9.30664C116.413 9.30664 117.835 9.58919 118.947 10.1543C120.059 10.7103 120.907 11.485 121.49 12.4785C122.083 13.4629 122.447 14.5931 122.584 15.8691H118.605C118.505 15.1947 118.314 14.6068 118.031 14.1055C117.749 13.6042 117.343 13.2122 116.814 12.9297C116.295 12.6471 115.62 12.5059 114.791 12.5059C114.107 12.5059 113.497 12.6471 112.959 12.9297C112.43 13.2031 111.984 13.6087 111.619 14.1465C111.255 14.6842 110.977 15.3496 110.785 16.1426C110.594 16.9355 110.498 17.8561 110.498 18.9043V20.1758C110.498 21.2148 110.598 22.1354 110.799 22.9375C110.999 23.7305 111.296 24.4004 111.688 24.9473C112.089 25.485 112.581 25.8906 113.164 26.1641C113.747 26.4375 114.426 26.5742 115.201 26.5742C115.848 26.5742 116.386 26.5195 116.814 26.4102C117.252 26.3008 117.603 26.1686 117.867 26.0137C118.141 25.8496 118.35 25.6947 118.496 25.5488V22.0215H114.75V19.0957H122.598ZM130.049 27.832L133.973 14.707H138.197L132.25 31.7285C132.122 32.1022 131.949 32.5033 131.73 32.9316C131.521 33.36 131.234 33.7656 130.869 34.1484C130.514 34.5404 130.062 34.8594 129.516 35.1055C128.978 35.3516 128.317 35.4746 127.533 35.4746C127.16 35.4746 126.854 35.4518 126.617 35.4062C126.38 35.3607 126.098 35.2969 125.77 35.2148V32.3301C125.87 32.3301 125.975 32.3301 126.084 32.3301C126.193 32.3392 126.298 32.3438 126.398 32.3438C126.918 32.3438 127.342 32.2845 127.67 32.166C127.998 32.0475 128.262 31.8652 128.463 31.6191C128.663 31.3822 128.823 31.0723 128.941 30.6895L130.049 27.832ZM128.408 14.707L131.621 25.4258L132.182 29.5957L129.502 29.8828L124.184 14.707H128.408ZM143.707 17.7695V29.5H139.756V14.707H143.461L143.707 17.7695ZM143.16 21.584H142.066C142.066 20.554 142.189 19.6061 142.436 18.7402C142.691 17.8652 143.06 17.1087 143.543 16.4707C144.035 15.8236 144.641 15.3223 145.361 14.9668C146.081 14.6113 146.915 14.4336 147.863 14.4336C148.52 14.4336 149.121 14.5339 149.668 14.7344C150.215 14.9258 150.684 15.2311 151.076 15.6504C151.477 16.0605 151.787 16.5983 152.006 17.2637C152.225 17.9199 152.334 18.7083 152.334 19.6289V29.5H148.396V20.0664C148.396 19.3919 148.305 18.8724 148.123 18.5078C147.941 18.1432 147.681 17.888 147.344 17.7422C147.016 17.5964 146.619 17.5234 146.154 17.5234C145.644 17.5234 145.197 17.6283 144.814 17.8379C144.441 18.0475 144.131 18.3392 143.885 18.7129C143.639 19.0775 143.456 19.5059 143.338 19.998C143.219 20.4902 143.16 21.0189 143.16 21.584ZM151.965 21.1328L150.557 21.3105C150.557 20.3444 150.675 19.4466 150.912 18.6172C151.158 17.7878 151.518 17.0586 151.992 16.4297C152.475 15.8008 153.072 15.3132 153.783 14.9668C154.494 14.6113 155.314 14.4336 156.244 14.4336C156.955 14.4336 157.602 14.5384 158.186 14.748C158.769 14.9486 159.266 15.2721 159.676 15.7188C160.095 16.1562 160.414 16.7305 160.633 17.4414C160.861 18.1523 160.975 19.0228 160.975 20.0527V29.5H157.023V20.0527C157.023 19.3691 156.932 18.8496 156.75 18.4941C156.577 18.1296 156.322 17.8789 155.984 17.7422C155.656 17.5964 155.264 17.5234 154.809 17.5234C154.335 17.5234 153.92 17.6191 153.564 17.8105C153.209 17.9928 152.913 18.248 152.676 18.5762C152.439 18.9043 152.261 19.2871 152.143 19.7246C152.024 20.153 151.965 20.6224 151.965 21.1328Z" fill="white"/>
</g>
<defs>
<filter id="filter0_d_1_128" x="0.5" y="0" width="166" height="48" filterUnits="userSpaceOnUse" color-interpolation-filters="sRGB">
<feFlood flood-opacity="0" result="BackgroundImageFix"/>
<feColorMatrix in="SourceAlpha" type="matrix" values="0 0 0 0 0 0 0 0 0 0 0 0 0 0 0 0 0 0 127 0" result="hardAlpha"/>
<feOffset dy="4"/>
<feGaussianBlur stdDeviation="2"/>
<feComposite in2="hardAlpha" operator="out"/>
<feColorMatrix type="matrix" values="0 0 0 0 0 0 0 0 0 0 0 0 0 0 0 0 0 0 0.25 0"/>
<feBlend mode="normal" in2="BackgroundImageFix" result="effect1_dropShadow_1_128"/>
<feBlend mode="normal" in="SourceGraphic" in2="effect1_dropShadow_1_128" result="shape"/>
</filter>
<clipPath id="clip0_1_128">
<rect width="40" height="40" fill="white" transform="translate(4.5)"/>
</clipPath>
</defs>
</svg>
